<svg xmlns="http://www.w3.org/2000/svg" width="11.991" height="11.991" viewBox="0 0 11.991 11.991"><path d="M11.429,3h-.187V1.874C11.242.824,8.918,0,6,0S.749.824.749,1.874V3H.562A.562.562,0,0,0,0,3.56V5.433A.562.562,0,0,0,.562,6H.749V9.743a.75.75,0,0,0,.749.749v.749a.75.75,0,0,0,.749.749H3a.75.75,0,0,0,.749-.749v-.749h4.5v.749a.75.75,0,0,0,.749.749h.749a.75.75,0,0,0,.749-.749v-.749h.15a.591.591,0,0,0,.6-.6V6h.187a.562.562,0,0,0,.562-.562V3.56A.562.562,0,0,0,11.429,3ZM2.623,9.368a.749.749,0,1,1,.749-.749A.75.75,0,0,1,2.623,9.368ZM3,6.745A.75.75,0,0,1,2.248,6V3A.75.75,0,0,1,3,2.248h6A.75.75,0,0,1,9.743,3V6a.75.75,0,0,1-.749.749Zm6.37,2.623a.749.749,0,1,1,.749-.749A.75.75,0,0,1,9.368,9.368Z"/></svg>