<svg xmlns="http://www.w3.org/2000/svg" width="19.941" height="19.941" viewBox="0 0 19.941 19.941"><defs><style>.a{fill:#6ec197;}</style></defs><path class="a" d="M19.006,4.985h-.312V3.116C18.695,1.371,14.831,0,9.971,0S1.246,1.371,1.246,3.116V4.985H.935A.935.935,0,0,0,0,5.92V9.036a.935.935,0,0,0,.935.935h.312V16.2a1.246,1.246,0,0,0,1.246,1.246v1.246a1.246,1.246,0,0,0,1.246,1.246H4.985a1.246,1.246,0,0,0,1.246-1.246V17.448h7.478v1.246a1.246,1.246,0,0,0,1.246,1.246H16.2a1.246,1.246,0,0,0,1.246-1.246V17.448H17.7a.983.983,0,0,0,1-1V9.971h.312a.935.935,0,0,0,.935-.935V5.92A.935.935,0,0,0,19.006,4.985ZM4.362,15.579a1.246,1.246,0,1,1,1.246-1.246A1.246,1.246,0,0,1,4.362,15.579Zm.623-4.362A1.246,1.246,0,0,1,3.739,9.971V4.985A1.246,1.246,0,0,1,4.985,3.739h9.971A1.246,1.246,0,0,1,16.2,4.985V9.971a1.246,1.246,0,0,1-1.246,1.246Zm10.594,4.362a1.246,1.246,0,1,1,1.246-1.246A1.246,1.246,0,0,1,15.579,15.579Z"/></svg>